<?xml version="1.0" standalone="no"?>
<!DOCTYPE svg PUBLIC "-//W3C//DTD SVG 20010904//EN"
 "http://www.w3.org/TR/2001/REC-SVG-20010904/DTD/svg10.dtd">
<svg version="1.0" xmlns="http://www.w3.org/2000/svg"
 width="225.000000pt" height="225.000000pt" viewBox="0 0 225.000000 225.000000"
 preserveAspectRatio="xMidYMid meet">

<g transform="translate(0.000000,225.000000) scale(0.100000,-0.100000)"
fill="#000000" stroke="none">
<path d="M1042 2094 c-80 -41 -122 -126 -108 -218 l7 -43 -68 -18 c-259 -69
-486 -248 -617 -487 -32 -57 -96 -230 -96 -257 0 -8 269 -11 965 -11 696 0
965 3 965 11 0 27 -64 200 -96 257 -130 238 -358 418 -614 486 l-66 18 1 76
c0 86 -16 119 -82 169 -45 35 -140 43 -191 17z m130 -131 c40 -36 8 -113 -47
-113 -54 0 -85 71 -48 112 20 22 70 23 95 1z"/>
<path d="M0 865 l0 -65 80 0 80 0 67 -135 68 -135 303 0 c239 0 303 -3 299
-12 -2 -7 -22 -66 -43 -130 l-38 -118 -72 0 -72 0 -4 -65 -3 -65 460 0 460 0
-3 65 -4 65 -72 0 -72 0 -38 118 c-21 64 -41 123 -43 130 -4 9 60 12 299 12
l303 0 68 135 67 135 80 0 80 0 0 65 0 65 -1125 0 -1125 0 0 -65z"/>
</g>
</svg>
