<?xml version="1.0" standalone="no"?>
<!DOCTYPE svg PUBLIC "-//W3C//DTD SVG 20010904//EN"
 "http://www.w3.org/TR/2001/REC-SVG-20010904/DTD/svg10.dtd">
<svg version="1.0" xmlns="http://www.w3.org/2000/svg"
 width="225.000000pt" height="225.000000pt" viewBox="0 0 225.000000 225.000000"
 preserveAspectRatio="xMidYMid meet">

<g transform="translate(0.000000,225.000000) scale(0.100000,-0.100000)"
fill="#000000" stroke="none">
<path d="M1516 2220 c-129 -21 -295 -79 -366 -130 -25 -18 -28 -25 -20 -41 15
-26 27 -24 117 17 147 67 208 79 393 79 186 0 252 -13 402 -82 82 -38 109 -38
116 0 6 27 -177 110 -310 141 -82 19 -257 27 -332 16z"/>
<path d="M1505 2070 c-130 -24 -300 -99 -300 -134 0 -41 29 -42 112 -3 206 96
409 100 619 12 103 -43 137 -48 142 -22 2 10 -2 25 -10 34 -18 22 -127 70
-213 94 -80 23 -272 33 -350 19z"/>
<path d="M1471 1910 c-149 -39 -217 -85 -187 -126 13 -17 17 -16 90 14 192 81
343 82 524 5 78 -33 85 -34 100 -19 24 24 7 45 -68 84 -125 63 -313 80 -459
42z"/>
<path d="M1468 1754 c-88 -28 -124 -53 -115 -78 11 -29 35 -29 104 0 62 27 78
29 188 29 110 0 125 -2 179 -27 69 -33 92 -35 101 -8 9 28 -1 39 -54 63 -124
55 -274 63 -403 21z"/>
<path d="M1552 1629 c-108 -21 -222 -115 -275 -227 -29 -61 -32 -75 -32 -167
0 -92 3 -106 32 -167 19 -40 53 -89 82 -118 51 -51 157 -110 198 -110 56 0 53
18 53 -374 0 -200 -2 -365 -4 -367 -2 -2 -54 -3 -115 -1 l-111 3 0 37 c0 28 8
44 38 75 l37 38 0 144 c0 138 -1 144 -24 169 -13 14 -32 28 -41 31 -10 3 -41
67 -84 174 -37 92 -73 177 -81 187 -13 18 -34 19 -378 22 -206 1 -374 -1 -388
-7 -20 -7 -38 -42 -98 -189 -56 -139 -79 -185 -100 -198 -48 -32 -50 -41 -51
-193 l0 -144 35 -33 c29 -27 35 -40 35 -73 l0 -41 -52 0 c-114 0 -151 -18
-128 -61 10 -19 32 -19 874 -19 923 0 894 -2 884 47 -4 21 -39 30 -120 32
l-58 1 0 365 0 365 28 6 c275 58 417 347 289 587 -84 159 -264 242 -445 206z
m239 -256 c36 -39 39 -47 39 -98 0 -51 -3 -59 -38 -97 -36 -38 -42 -41 -118
-49 -43 -4 -84 -8 -91 -8 -8 -1 -13 -25 -15 -68 -2 -56 -6 -68 -21 -71 -43 -8
-47 10 -47 210 0 116 4 197 11 209 10 19 19 20 126 17 l114 -3 40 -42z m-559
-608 c32 -77 57 -143 58 -147 0 -9 -904 -11 -912 -2 -5 4 35 111 98 262 l13
32 343 -2 343 -3 57 -140z m-735 -327 c28 -27 29 -57 3 -86 -26 -28 -57 -28
-87 0 -29 27 -29 55 -1 85 27 29 55 29 85 1z m753 2 c59 -59 -20 -149 -82 -93
-26 23 -24 78 4 97 30 21 54 20 78 -4z m-82 -307 l3 -33 -335 0 -336 0 0 35 0
35 333 -2 332 -3 3 -32z"/>
<path d="M1570 1292 c0 -90 2 -92 77 -92 55 0 67 4 88 25 29 28 32 65 8 93
-14 16 -35 22 -95 28 l-78 6 0 -60z"/>
</g>
</svg>
