<?xml version="1.0" standalone="no"?>
<!DOCTYPE svg PUBLIC "-//W3C//DTD SVG 20010904//EN"
 "http://www.w3.org/TR/2001/REC-SVG-20010904/DTD/svg10.dtd">
<svg version="1.0" xmlns="http://www.w3.org/2000/svg"
 width="225.000000pt" height="225.000000pt" viewBox="0 0 225.000000 225.000000"
 preserveAspectRatio="xMidYMid meet">

<g transform="translate(0.000000,225.000000) scale(0.100000,-0.100000)"
fill="#000000" stroke="none">
<path d="M970 2240 c-392 -55 -749 -337 -890 -701 -58 -150 -73 -237 -73 -414
0 -184 17 -273 82 -430 236 -573 897 -845 1472 -606 271 113 511 361 614 635
54 144 68 228 68 406 0 145 -4 177 -26 263 -110 415 -416 720 -827 823 -109
27 -313 39 -420 24z m316 -191 c292 -51 544 -241 682 -514 102 -201 121 -487
46 -707 -99 -291 -329 -512 -629 -604 -83 -26 -103 -28 -260 -28 -157 0 -177
2 -260 28 -314 96 -545 327 -642 643 -25 81 -27 102 -27 258 0 156 2 177 27
258 106 345 367 585 718 662 77 16 263 19 345 4z"/>
<path d="M680 1111 l0 -751 155 0 155 0 0 265 0 265 198 0 c108 0 227 5 264
10 177 26 304 146 354 333 18 67 18 247 0 314 -40 148 -136 244 -291 291 -40
12 -132 16 -442 19 l-393 5 0 -751z m701 477 c94 -32 133 -93 133 -213 1 -108
-26 -158 -103 -197 -54 -28 -58 -28 -238 -28 l-183 0 0 225 0 225 179 0 c108
0 191 -5 212 -12z"/>
</g>
</svg>
