<?xml version="1.0" standalone="no"?>
<!DOCTYPE svg PUBLIC "-//W3C//DTD SVG 20010904//EN"
 "http://www.w3.org/TR/2001/REC-SVG-20010904/DTD/svg10.dtd">
<svg version="1.0" xmlns="http://www.w3.org/2000/svg"
 width="300.000000pt" height="168.000000pt" viewBox="0 0 300.000000 168.000000"
 preserveAspectRatio="xMidYMid meet">

<g transform="translate(0.000000,168.000000) scale(0.100000,-0.100000)"
fill="#000000" stroke="none">
<path d="M1332 1436 c-212 -41 -407 -134 -554 -265 -42 -37 -48 -48 -48 -81 0
-30 6 -43 26 -59 42 -33 72 -27 136 28 126 108 280 184 438 216 104 21 323 17
414 -9 150 -42 292 -117 401 -212 58 -51 93 -57 130 -19 41 40 34 80 -22 133
-115 108 -295 203 -471 249 -121 31 -336 40 -450 19z"/>
<path d="M1360 1135 c-142 -28 -282 -98 -377 -189 -54 -50 -62 -71 -41 -109
30 -57 81 -62 135 -14 130 115 266 167 438 167 159 0 286 -46 415 -149 76 -61
106 -65 144 -20 14 17 26 39 26 50 0 28 -63 93 -142 146 -171 113 -399 158
-598 118z"/>
<path d="M1365 826 c-75 -24 -132 -56 -189 -107 -45 -39 -49 -87 -11 -124 33
-34 64 -31 119 10 82 63 141 85 231 85 91 0 146 -21 229 -84 56 -42 88 -45
121 -11 39 38 34 80 -16 127 -119 113 -322 157 -484 104z"/>
<path d="M1431 549 c-45 -28 -67 -56 -81 -105 -22 -77 18 -160 94 -195 54 -24
90 -24 144 2 126 62 127 239 0 305 -40 21 -117 18 -157 -7z"/>
</g>
</svg>
