<?xml version="1.0" standalone="no"?>
<!DOCTYPE svg PUBLIC "-//W3C//DTD SVG 20010904//EN"
 "http://www.w3.org/TR/2001/REC-SVG-20010904/DTD/svg10.dtd">
<svg version="1.0" xmlns="http://www.w3.org/2000/svg"
 width="225.000000pt" height="225.000000pt" viewBox="0 0 225.000000 225.000000"
 preserveAspectRatio="xMidYMid meet">

<g transform="translate(0.000000,225.000000) scale(0.100000,-0.100000)"
fill="#000000" stroke="none">
<path d="M950 2039 c-261 -30 -518 -122 -730 -263 -191 -128 -237 -189 -211
-277 15 -48 49 -84 98 -100 51 -16 95 -4 155 45 281 227 608 329 973 304 267
-18 531 -125 753 -304 60 -49 104 -61 155 -45 49 16 83 52 98 100 26 88 -22
152 -206 274 -321 212 -713 308 -1085 266z m450 -84 c262 -50 468 -140 676
-296 51 -38 95 -76 98 -85 19 -50 -18 -114 -67 -114 -14 0 -61 27 -112 65
-271 203 -544 295 -870 295 -326 0 -599 -92 -870 -295 -51 -38 -98 -65 -112
-65 -35 0 -73 42 -73 81 0 40 38 76 178 170 214 143 448 229 722 263 73 9 348
-3 430 -19z"/>
<path d="M946 1585 c-206 -34 -412 -124 -567 -247 -29 -24 -59 -82 -59 -117 0
-81 89 -161 163 -147 19 3 77 35 130 70 164 110 320 157 512 157 192 0 348
-47 512 -157 116 -77 145 -84 208 -54 78 38 106 125 64 199 -53 94 -325 238
-533 282 -123 26 -317 32 -430 14z m409 -78 c86 -19 200 -59 280 -100 77 -38
203 -125 216 -148 24 -46 -1 -103 -52 -114 -27 -6 -42 0 -106 45 -90 63 -212
121 -318 152 -71 20 -101 23 -255 22 -160 0 -182 -3 -263 -27 -106 -33 -208
-83 -303 -149 -62 -43 -76 -49 -103 -43 -51 11 -76 68 -52 114 13 23 139 110
216 149 88 44 219 88 305 102 41 6 82 13 90 15 35 9 281 -5 345 -18z"/>
<path d="M975 1134 c-134 -30 -272 -100 -310 -158 -46 -69 -17 -169 59 -205
23 -12 53 -21 66 -21 13 0 64 20 114 45 160 79 283 79 442 0 50 -25 101 -45
114 -45 48 0 108 39 129 84 49 99 5 173 -144 242 -100 46 -175 64 -295 69 -74
3 -126 0 -175 -11z m360 -89 c82 -27 170 -75 192 -104 20 -26 15 -70 -12 -96
-33 -34 -51 -32 -142 15 -95 48 -144 60 -248 60 -104 0 -153 -12 -248 -60 -43
-22 -87 -40 -98 -40 -29 0 -69 44 -69 77 1 35 14 53 68 87 154 97 378 122 557
61z"/>
<path d="M1041 676 c-54 -19 -112 -75 -139 -134 -81 -178 86 -378 277 -332
105 25 178 110 188 218 16 172 -162 307 -326 248z m175 -81 c141 -83 90 -307
-74 -323 -103 -9 -192 72 -192 175 0 134 149 217 266 148z"/>
</g>
</svg>
