<?xml version="1.0" standalone="no"?>
<!DOCTYPE svg PUBLIC "-//W3C//DTD SVG 20010904//EN"
 "http://www.w3.org/TR/2001/REC-SVG-20010904/DTD/svg10.dtd">
<svg version="1.0" xmlns="http://www.w3.org/2000/svg"
 width="225.000000pt" height="225.000000pt" viewBox="0 0 225.000000 225.000000"
 preserveAspectRatio="xMidYMid meet">

<g transform="translate(0.000000,225.000000) scale(0.100000,-0.100000)"
fill="#000000" stroke="none">
<path d="M1005 1654 c-108 -23 -240 -76 -312 -126 -67 -46 -124 -99 -117 -109
9 -16 112 -89 124 -89 7 0 30 15 51 34 52 44 168 102 244 121 173 44 374 -2
517 -119 l56 -45 61 45 c33 25 61 52 61 59 0 47 -251 189 -387 219 -66 15
-246 20 -298 10z m340 -54 c39 -12 90 -31 115 -42 51 -23 190 -117 190 -128 0
-10 -66 -60 -78 -60 -5 0 -27 14 -48 31 -46 37 -128 79 -204 105 -85 29 -292
27 -381 -4 -73 -25 -171 -80 -208 -117 l-24 -24 -44 31 -43 32 22 24 c58 63
197 132 333 167 88 22 278 14 370 -15z"/>
<path d="M960 1397 c-36 -13 -76 -29 -90 -36 -46 -24 -130 -91 -130 -104 0 -7
20 -33 45 -57 33 -33 49 -42 59 -35 105 79 196 115 292 115 89 0 196 -39 262
-95 16 -14 34 -25 39 -25 18 0 93 72 93 89 0 33 -147 128 -239 155 -86 25
-250 21 -331 -7z m309 -22 c70 -17 136 -50 191 -95 l35 -28 -24 -26 c-29 -31
-42 -32 -65 -7 -9 10 -49 33 -89 52 -67 31 -79 33 -177 34 -119 0 -169 -14
-258 -73 l-54 -35 -26 26 c-24 24 -25 27 -10 44 30 32 128 86 191 104 77 22
201 24 286 4z"/>
<path d="M1033 1196 c-49 -16 -102 -47 -128 -76 -18 -20 -18 -21 30 -70 42
-43 51 -48 64 -36 71 62 201 62 272 0 13 -12 22 -7 64 36 l49 50 -23 23 c-12
14 -45 37 -73 52 -61 33 -186 44 -255 21z m237 -48 c19 -8 43 -24 52 -35 17
-19 17 -20 -7 -43 l-24 -23 -48 23 c-65 31 -153 32 -210 2 -54 -28 -55 -28
-81 8 l-22 29 45 27 c73 43 213 48 295 12z"/>
<path d="M1114 948 c-20 -5 -37 -19 -49 -42 -16 -29 -17 -38 -5 -65 23 -57 92
-72 136 -30 30 28 32 77 4 111 -24 31 -45 37 -86 26z m61 -48 c27 -29 10 -74
-28 -78 -36 -4 -57 13 -57 47 0 51 50 69 85 31z"/>
<path d="M201 184 c0 -11 3 -14 6 -6 3 7 2 16 -1 19 -3 4 -6 -2 -5 -13z"/>
<path d="M110 125 c0 -8 4 -15 8 -15 5 0 9 7 9 15 0 8 -4 15 -9 15 -4 0 -8 -7
-8 -15z"/>
<path d="M160 110 c0 -29 1 -29 20 -13 11 10 20 23 20 30 0 7 -9 13 -20 13
-16 0 -20 -7 -20 -30z m30 10 c0 -5 -4 -10 -10 -10 -5 0 -10 5 -10 10 0 6 5
10 10 10 6 0 10 -4 10 -10z"/>
<path d="M217 133 c-4 -3 1 -15 10 -26 17 -19 17 -20 0 -14 -11 4 -16 3 -12
-3 9 -15 35 -12 35 4 0 8 -8 17 -17 21 -17 7 -16 8 2 15 15 6 16 9 4 9 -9 1
-19 -2 -22 -6z"/>
<path d="M298 110 c2 -17 6 -30 8 -30 2 0 4 14 4 30 0 17 -4 30 -8 30 -5 0 -7
-13 -4 -30z"/>
<path d="M332 113 c4 -39 28 -42 28 -4 0 21 -5 31 -16 31 -11 0 -14 -8 -12
-27z m15 -15 c-3 -7 -5 -2 -5 12 0 14 2 19 5 13 2 -7 2 -19 0 -25z"/>
</g>
</svg>
