<?xml version="1.0" standalone="no"?>
<!DOCTYPE svg PUBLIC "-//W3C//DTD SVG 20010904//EN"
 "http://www.w3.org/TR/2001/REC-SVG-20010904/DTD/svg10.dtd">
<svg version="1.0" xmlns="http://www.w3.org/2000/svg"
 width="225.000000pt" height="225.000000pt" viewBox="0 0 225.000000 225.000000"
 preserveAspectRatio="xMidYMid meet">

<g transform="translate(0.000000,225.000000) scale(0.100000,-0.100000)"
fill="#000000" stroke="none">
<path d="M291 2239 c-141 -28 -253 -143 -281 -288 -14 -76 -14 -1578 1 -1656
21 -116 95 -212 202 -261 l62 -29 855 0 855 0 59 29 c76 37 135 96 172 172
l29 59 0 855 0 855 -29 62 c-49 107 -145 181 -261 202 -71 13 -1597 13 -1664
0z m999 -555 c173 -32 306 -102 435 -226 98 -93 135 -154 117 -192 -28 -61
-93 -70 -134 -18 -13 15 -55 59 -95 99 -55 55 -93 82 -165 118 -122 60 -211
78 -353 72 -225 -9 -381 -91 -546 -285 -41 -48 -71 -54 -113 -21 -56 44 -24
122 96 235 199 188 485 270 758 218z m-5 -249 c144 -37 289 -138 369 -260 53
-79 43 -145 -23 -160 -41 -9 -65 7 -104 68 -96 150 -285 235 -465 208 -139
-21 -257 -92 -327 -196 -20 -30 -47 -63 -61 -71 -41 -28 -97 -1 -110 53 -19
72 153 260 292 320 125 53 305 69 429 38z m-24 -281 c30 -9 76 -28 103 -41 56
-28 161 -123 182 -165 30 -58 6 -113 -53 -124 -29 -6 -37 0 -105 68 -95 97
-153 121 -278 116 -123 -5 -175 -33 -283 -156 -36 -41 -69 -41 -108 -3 -37 37
-37 61 1 116 60 87 166 161 271 189 73 20 203 20 270 0z m-49 -300 c55 -28 95
-108 84 -167 -29 -153 -215 -188 -303 -58 -27 39 -31 107 -9 149 46 88 142
120 228 76z"/>
</g>
</svg>
