<?xml version="1.0" standalone="no"?>
<!DOCTYPE svg PUBLIC "-//W3C//DTD SVG 20010904//EN"
 "http://www.w3.org/TR/2001/REC-SVG-20010904/DTD/svg10.dtd">
<svg version="1.0" xmlns="http://www.w3.org/2000/svg"
 width="225.000000pt" height="225.000000pt" viewBox="0 0 225.000000 225.000000"
 preserveAspectRatio="xMidYMid meet">

<g transform="translate(0.000000,225.000000) scale(0.100000,-0.100000)"
fill="#000000" stroke="none">
<path d="M1000 2074 c-357 -43 -622 -156 -876 -373 -121 -103 -147 -171 -102
-261 32 -63 77 -90 147 -90 64 0 80 9 173 91 170 151 373 247 601 284 343 56
701 -50 965 -284 93 -82 109 -91 173 -91 70 0 115 27 147 90 45 90 19 158
-102 261 -218 186 -471 308 -741 354 -90 16 -319 27 -385 19z"/>
<path d="M1025 1449 c-190 -20 -386 -111 -514 -239 -55 -55 -73 -107 -60 -169
16 -73 85 -131 155 -131 59 0 85 12 157 72 100 83 244 138 362 138 118 0 279
-63 371 -144 60 -53 89 -66 146 -66 112 0 191 123 149 233 -15 38 -93 112
-179 168 -166 109 -381 159 -587 138z"/>
<path d="M1030 841 c-94 -31 -174 -103 -216 -196 -22 -47 -27 -74 -27 -130 1
-138 68 -247 191 -307 96 -48 198 -48 294 0 123 60 190 169 191 307 1 124 -74
243 -188 303 -40 20 -67 26 -135 28 -47 2 -96 0 -110 -5z"/>
</g>
</svg>
